<svg class="rich-terminal" viewBox="0 0 1678 830.8" xmlns="http://www.w3.org/2000/svg">
    <!-- Generated with Rich https://www.textualize.io -->
    <style>

    @font-face {
        font-family: "Fira Code";
        src: local("FiraCode-Regular"),
                url("https://cdnjs.cloudflare.com/ajax/libs/firacode/6.2.0/woff2/FiraCode-Regular.woff2") format("woff2"),
                url("https://cdnjs.cloudflare.com/ajax/libs/firacode/6.2.0/woff/FiraCode-Regular.woff") format("woff");
        font-style: normal;
        font-weight: 400;
    }
    @font-face {
        font-family: "Fira Code";
        src: local("FiraCode-Bold"),
                url("https://cdnjs.cloudflare.com/ajax/libs/firacode/6.2.0/woff2/FiraCode-Bold.woff2") format("woff2"),
                url("https://cdnjs.cloudflare.com/ajax/libs/firacode/6.2.0/woff/FiraCode-Bold.woff") format("woff");
        font-style: bold;
        font-weight: 700;
    }

    .terminal-94531205-matrix {
        font-family: Fira Code, monospace;
        font-size: 20px;
        line-height: 24.4px;
        font-variant-east-asian: full-width;
    }

    .terminal-94531205-title {
        font-size: 18px;
        font-weight: bold;
        font-family: arial;
    }

    .terminal-94531205-r1 { fill: #c5c8c6 }
.terminal-94531205-r2 { fill: #e0e0e0 }
.terminal-94531205-r3 { fill: #c5c6c7 }
.terminal-94531205-r4 { fill: #ddedf9;font-weight: bold }
.terminal-94531205-r5 { fill: #7f7f7f }
.terminal-94531205-r6 { fill: #585858 }
.terminal-94531205-r7 { fill: #0178d4 }
.terminal-94531205-r8 { fill: #0053aa }
.terminal-94531205-r9 { fill: #1e1e1e }
.terminal-94531205-r10 { fill: #a5a5a5 }
.terminal-94531205-r11 { fill: #fea62b;font-weight: bold }
.terminal-94531205-r12 { fill: #36aa5e }
.terminal-94531205-r13 { fill: #737373 }
.terminal-94531205-r14 { fill: #000000 }
.terminal-94531205-r15 { fill: #2d2d2d }
.terminal-94531205-r16 { fill: #e0e0e0;font-weight: bold }
.terminal-94531205-r17 { fill: #0d0d0d }
.terminal-94531205-r18 { fill: #ffa62b;font-weight: bold }
.terminal-94531205-r19 { fill: #495259 }
    </style>

    <defs>
    <clipPath id="terminal-94531205-clip-terminal">
      <rect x="0" y="0" width="1658.1999999999998" height="779.8" />
    </clipPath>
    <clipPath id="terminal-94531205-line-0">
    <rect x="0" y="1.5" width="1659.2" height="24.65"/>
            </clipPath>
<clipPath id="terminal-94531205-line-1">
    <rect x="0" y="25.9" width="1659.2" height="24.65"/>
            </clipPath>
<clipPath id="terminal-94531205-line-2">
    <rect x="0" y="50.3" width="1659.2" height="24.65"/>
            </clipPath>
<clipPath id="terminal-94531205-line-3">
    <rect x="0" y="74.7" width="1659.2" height="24.65"/>
            </clipPath>
<clipPath id="terminal-94531205-line-4">
    <rect x="0" y="99.1" width="1659.2" height="24.65"/>
            </clipPath>
<clipPath id="terminal-94531205-line-5">
    <rect x="0" y="123.5" width="1659.2" height="24.65"/>
            </clipPath>
<clipPath id="terminal-94531205-line-6">
    <rect x="0" y="147.9" width="1659.2" height="24.65"/>
            </clipPath>
<clipPath id="terminal-94531205-line-7">
    <rect x="0" y="172.3" width="1659.2" height="24.65"/>
            </clipPath>
<clipPath id="terminal-94531205-line-8">
    <rect x="0" y="196.7" width="1659.2" height="24.65"/>
            </clipPath>
<clipPath id="terminal-94531205-line-9">
    <rect x="0" y="221.1" width="1659.2" height="24.65"/>
            </clipPath>
<clipPath id="terminal-94531205-line-10">
    <rect x="0" y="245.5" width="1659.2" height="24.65"/>
            </clipPath>
<clipPath id="terminal-94531205-line-11">
    <rect x="0" y="269.9" width="1659.2" height="24.65"/>
            </clipPath>
<clipPath id="terminal-94531205-line-12">
    <rect x="0" y="294.3" width="1659.2" height="24.65"/>
            </clipPath>
<clipPath id="terminal-94531205-line-13">
    <rect x="0" y="318.7" width="1659.2" height="24.65"/>
            </clipPath>
<clipPath id="terminal-94531205-line-14">
    <rect x="0" y="343.1" width="1659.2" height="24.65"/>
            </clipPath>
<clipPath id="terminal-94531205-line-15">
    <rect x="0" y="367.5" width="1659.2" height="24.65"/>
            </clipPath>
<clipPath id="terminal-94531205-line-16">
    <rect x="0" y="391.9" width="1659.2" height="24.65"/>
            </clipPath>
<clipPath id="terminal-94531205-line-17">
    <rect x="0" y="416.3" width="1659.2" height="24.65"/>
            </clipPath>
<clipPath id="terminal-94531205-line-18">
    <rect x="0" y="440.7" width="1659.2" height="24.65"/>
            </clipPath>
<clipPath id="terminal-94531205-line-19">
    <rect x="0" y="465.1" width="1659.2" height="24.65"/>
            </clipPath>
<clipPath id="terminal-94531205-line-20">
    <rect x="0" y="489.5" width="1659.2" height="24.65"/>
            </clipPath>
<clipPath id="terminal-94531205-line-21">
    <rect x="0" y="513.9" width="1659.2" height="24.65"/>
            </clipPath>
<clipPath id="terminal-94531205-line-22">
    <rect x="0" y="538.3" width="1659.2" height="24.65"/>
            </clipPath>
<clipPath id="terminal-94531205-line-23">
    <rect x="0" y="562.7" width="1659.2" height="24.65"/>
            </clipPath>
<clipPath id="terminal-94531205-line-24">
    <rect x="0" y="587.1" width="1659.2" height="24.65"/>
            </clipPath>
<clipPath id="terminal-94531205-line-25">
    <rect x="0" y="611.5" width="1659.2" height="24.65"/>
            </clipPath>
<clipPath id="terminal-94531205-line-26">
    <rect x="0" y="635.9" width="1659.2" height="24.65"/>
            </clipPath>
<clipPath id="terminal-94531205-line-27">
    <rect x="0" y="660.3" width="1659.2" height="24.65"/>
            </clipPath>
<clipPath id="terminal-94531205-line-28">
    <rect x="0" y="684.7" width="1659.2" height="24.65"/>
            </clipPath>
<clipPath id="terminal-94531205-line-29">
    <rect x="0" y="709.1" width="1659.2" height="24.65"/>
            </clipPath>
<clipPath id="terminal-94531205-line-30">
    <rect x="0" y="733.5" width="1659.2" height="24.65"/>
            </clipPath>
    </defs>

    <rect fill="#292929" stroke="rgba(255,255,255,0.35)" stroke-width="1" x="1" y="1" width="1676" height="828.8" rx="8"/><text class="terminal-94531205-title" fill="#c5c8c6" text-anchor="middle" x="838" y="27">SetApp</text>
            <g transform="translate(26,22)">
            <circle cx="0" cy="0" r="7" fill="#ff5f57"/>
            <circle cx="22" cy="0" r="7" fill="#febc2e"/>
            <circle cx="44" cy="0" r="7" fill="#28c840"/>
            </g>
        
    <g transform="translate(9, 41)" clip-path="url(#terminal-94531205-clip-terminal)">
    <rect fill="#242f38" x="0" y="1.5" width="12.2" height="24.65" shape-rendering="crispEdges"/><rect fill="#242f38" x="12.2" y="1.5" width="12.2" height="24.65" shape-rendering="crispEdges"/><rect fill="#242f38" x="24.4" y="1.5" width="61" height="24.65" shape-rendering="crispEdges"/><rect fill="#242f38" x="85.4" y="1.5" width="12.2" height="24.65" shape-rendering="crispEdges"/><rect fill="#242f38" x="97.6" y="1.5" width="683.2" height="24.65" shape-rendering="crispEdges"/><rect fill="#242f38" x="780.8" y="1.5" width="73.2" height="24.65" shape-rendering="crispEdges"/><rect fill="#242f38" x="854" y="1.5" width="683.2" height="24.65" shape-rendering="crispEdges"/><rect fill="#2c363f" x="1537.2" y="1.5" width="12.2" height="24.65" shape-rendering="crispEdges"/><rect fill="#2c363f" x="1549.4" y="1.5" width="97.6" height="24.65" shape-rendering="crispEdges"/><rect fill="#2c363f" x="1647" y="1.5" width="12.2" height="24.65" shape-rendering="crispEdges"/><rect fill="#0178d4" x="0" y="25.9" width="12.2" height="24.65" shape-rendering="crispEdges"/><rect fill="#0178d4" x="12.2" y="25.9" width="146.4" height="24.65" shape-rendering="crispEdges"/><rect fill="#0178d4" x="158.6" y="25.9" width="12.2" height="24.65" shape-rendering="crispEdges"/><rect fill="#1e1e1e" x="170.8" y="25.9" width="12.2" height="24.65" shape-rendering="crispEdges"/><rect fill="#1e1e1e" x="183" y="25.9" width="183" height="24.65" shape-rendering="crispEdges"/><rect fill="#1e1e1e" x="366" y="25.9" width="12.2" height="24.65" shape-rendering="crispEdges"/><rect fill="#1e1e1e" x="378.2" y="25.9" width="12.2" height="24.65" shape-rendering="crispEdges"/><rect fill="#1e1e1e" x="390.4" y="25.9" width="207.4" height="24.65" shape-rendering="crispEdges"/><rect fill="#1e1e1e" x="597.8" y="25.9" width="12.2" height="24.65" shape-rendering="crispEdges"/><rect fill="#1e1e1e" x="610" y="25.9" width="12.2" height="24.65" shape-rendering="crispEdges"/><rect fill="#1e1e1e" x="622.2" y="25.9" width="195.2" height="24.65" shape-rendering="crispEdges"/><rect fill="#1e1e1e" x="817.4" y="25.9" width="12.2" height="24.65" shape-rendering="crispEdges"/><rect fill="#1e1e1e" x="829.6" y="25.9" width="12.2" height="24.65" shape-rendering="crispEdges"/><rect fill="#1e1e1e" x="841.8" y="25.9" width="158.6" height="24.65" shape-rendering="crispEdges"/><rect fill="#1e1e1e" x="1000.4" y="25.9" width="12.2" height="24.65" shape-rendering="crispEdges"/><rect fill="#1e1e1e" x="1012.6" y="25.9" width="646.6" height="24.65" shape-rendering="crispEdges"/><rect fill="#1e1e1e" x="0" y="50.3" width="12.2" height="24.65" shape-rendering="crispEdges"/><rect fill="#1e1e1e" x="12.2" y="50.3" width="146.4" height="24.65" shape-rendering="crispEdges"/><rect fill="#1e1e1e" x="158.6" y="50.3" width="12.2" height="24.65" shape-rendering="crispEdges"/><rect fill="#1e1e1e" x="170.8" y="50.3" width="1488.4" height="24.65" shape-rendering="crispEdges"/><rect fill="#1e1e1e" x="0" y="74.7" width="1659.2" height="24.65" shape-rendering="crispEdges"/><rect fill="#1e1e1e" x="0" y="99.1" width="24.4" height="24.65" shape-rendering="crispEdges"/><rect fill="#1e1e1e" x="24.4" y="99.1" width="12.2" height="24.65" shape-rendering="crispEdges"/><rect fill="#1e1e1e" x="36.6" y="99.1" width="1561.6" height="24.65" shape-rendering="crispEdges"/><rect fill="#1e1e1e" x="1598.2" y="99.1" width="12.2" height="24.65" shape-rendering="crispEdges"/><rect fill="#003054" x="1610.4" y="99.1" width="24.4" height="24.65" shape-rendering="crispEdges"/><rect fill="#1e1e1e" x="1634.8" y="99.1" width="24.4" height="24.65" shape-rendering="crispEdges"/><rect fill="#1e1e1e" x="0" y="123.5" width="24.4" height="24.65" shape-rendering="crispEdges"/><rect fill="#1e1e1e" x="24.4" y="123.5" width="12.2" height="24.65" shape-rendering="crispEdges"/><rect fill="#1e1e1e" x="36.6" y="123.5" width="1561.6" height="24.65" shape-rendering="crispEdges"/><rect fill="#1e1e1e" x="1598.2" y="123.5" width="12.2" height="24.65" shape-rendering="crispEdges"/><rect fill="#003054" x="1610.4" y="123.5" width="24.4" height="24.65" shape-rendering="crispEdges"/><rect fill="#1e1e1e" x="1634.8" y="123.5" width="24.4" height="24.65" shape-rendering="crispEdges"/><rect fill="#1e1e1e" x="0" y="147.9" width="24.4" height="24.65" shape-rendering="crispEdges"/><rect fill="#1e1e1e" x="24.4" y="147.9" width="12.2" height="24.65" shape-rendering="crispEdges"/><rect fill="#1e1e1e" x="36.6" y="147.9" width="24.4" height="24.65" shape-rendering="crispEdges"/><rect fill="#1e1e1e" x="61" y="147.9" width="353.8" height="24.65" shape-rendering="crispEdges"/><rect fill="#1e1e1e" x="414.8" y="147.9" width="1159" height="24.65" shape-rendering="crispEdges"/><rect fill="#1e1e1e" x="1573.8" y="147.9" width="24.4" height="24.65" shape-rendering="crispEdges"/><rect fill="#1e1e1e" x="1598.2" y="147.9" width="12.2" height="24.65" shape-rendering="crispEdges"/><rect fill="#003054" x="1610.4" y="147.9" width="24.4" height="24.65" shape-rendering="crispEdges"/><rect fill="#1e1e1e" x="1634.8" y="147.9" width="24.4" height="24.65" shape-rendering="crispEdges"/><rect fill="#1e1e1e" x="0" y="172.3" width="24.4" height="24.65" shape-rendering="crispEdges"/><rect fill="#1e1e1e" x="24.4" y="172.3" width="12.2" height="24.65" shape-rendering="crispEdges"/><rect fill="#1e1e1e" x="36.6" y="172.3" width="24.4" height="24.65" shape-rendering="crispEdges"/><rect fill="#1e1e1e" x="61" y="172.3" width="634.4" height="24.65" shape-rendering="crispEdges"/><rect fill="#1e1e1e" x="695.4" y="172.3" width="878.4" height="24.65" shape-rendering="crispEdges"/><rect fill="#1e1e1e" x="1573.8" y="172.3" width="24.4" height="24.65" shape-rendering="crispEdges"/><rect fill="#1e1e1e" x="1598.2" y="172.3" width="12.2" height="24.65" shape-rendering="crispEdges"/><rect fill="#003054" x="1610.4" y="172.3" width="24.4" height="24.65" shape-rendering="crispEdges"/><rect fill="#1e1e1e" x="1634.8" y="172.3" width="24.4" height="24.65" shape-rendering="crispEdges"/><rect fill="#1e1e1e" x="0" y="196.7" width="24.4" height="24.65" shape-rendering="crispEdges"/><rect fill="#1e1e1e" x="24.4" y="196.7" width="12.2" height="24.65" shape-rendering="crispEdges"/><rect fill="#1e1e1e" x="36.6" y="196.7" width="24.4" height="24.65" shape-rendering="crispEdges"/><rect fill="#1e1e1e" x="61" y="196.7" width="634.4" height="24.65" shape-rendering="crispEdges"/><rect fill="#1e1e1e" x="695.4" y="196.7" width="878.4" height="24.65" shape-rendering="crispEdges"/><rect fill="#1e1e1e" x="1573.8" y="196.7" width="24.4" height="24.65" shape-rendering="crispEdges"/><rect fill="#1e1e1e" x="1598.2" y="196.7" width="12.2" height="24.65" shape-rendering="crispEdges"/><rect fill="#003054" x="1610.4" y="196.7" width="24.4" height="24.65" shape-rendering="crispEdges"/><rect fill="#1e1e1e" x="1634.8" y="196.7" width="24.4" height="24.65" shape-rendering="crispEdges"/><rect fill="#1e1e1e" x="0" y="221.1" width="24.4" height="24.65" shape-rendering="crispEdges"/><rect fill="#1e1e1e" x="24.4" y="221.1" width="12.2" height="24.65" shape-rendering="crispEdges"/><rect fill="#1e1e1e" x="36.6" y="221.1" width="24.4" height="24.65" shape-rendering="crispEdges"/><rect fill="#1e1e1e" x="61" y="221.1" width="707.6" height="24.65" shape-rendering="crispEdges"/><rect fill="#1e1e1e" x="768.6" y="221.1" width="805.2" height="24.65" shape-rendering="crispEdges"/><rect fill="#1e1e1e" x="1573.8" y="221.1" width="24.4" height="24.65" shape-rendering="crispEdges"/><rect fill="#1e1e1e" x="1598.2" y="221.1" width="12.2" height="24.65" shape-rendering="crispEdges"/><rect fill="#003054" x="1610.4" y="221.1" width="24.4" height="24.65" shape-rendering="crispEdges"/><rect fill="#1e1e1e" x="1634.8" y="221.1" width="24.4" height="24.65" shape-rendering="crispEdges"/><rect fill="#1e1e1e" x="0" y="245.5" width="24.4" height="24.65" shape-rendering="crispEdges"/><rect fill="#1e1e1e" x="24.4" y="245.5" width="12.2" height="24.65" shape-rendering="crispEdges"/><rect fill="#1e1e1e" x="36.6" y="245.5" width="24.4" height="24.65" shape-rendering="crispEdges"/><rect fill="#1e1e1e" x="61" y="245.5" width="488" height="24.65" shape-rendering="crispEdges"/><rect fill="#1e1e1e" x="549" y="245.5" width="1024.8" height="24.65" shape-rendering="crispEdges"/><rect fill="#1e1e1e" x="1573.8" y="245.5" width="24.4" height="24.65" shape-rendering="crispEdges"/><rect fill="#1e1e1e" x="1598.2" y="245.5" width="12.2" height="24.65" shape-rendering="crispEdges"/><rect fill="#003054" x="1610.4" y="245.5" width="24.4" height="24.65" shape-rendering="crispEdges"/><rect fill="#1e1e1e" x="1634.8" y="245.5" width="24.4" height="24.65" shape-rendering="crispEdges"/><rect fill="#1e1e1e" x="0" y="269.9" width="24.4" height="24.65" shape-rendering="crispEdges"/><rect fill="#1e1e1e" x="24.4" y="269.9" width="12.2" height="24.65" shape-rendering="crispEdges"/><rect fill="#1e1e1e" x="36.6" y="269.9" width="24.4" height="24.65" shape-rendering="crispEdges"/><rect fill="#1e1e1e" x="61" y="269.9" width="622.2" height="24.65" shape-rendering="crispEdges"/><rect fill="#1e1e1e" x="683.2" y="269.9" width="890.6" height="24.65" shape-rendering="crispEdges"/><rect fill="#1e1e1e" x="1573.8" y="269.9" width="24.4" height="24.65" shape-rendering="crispEdges"/><rect fill="#1e1e1e" x="1598.2" y="269.9" width="12.2" height="24.65" shape-rendering="crispEdges"/><rect fill="#003054" x="1610.4" y="269.9" width="24.4" height="24.65" shape-rendering="crispEdges"/><rect fill="#1e1e1e" x="1634.8" y="269.9" width="24.4" height="24.65" shape-rendering="crispEdges"/><rect fill="#1e1e1e" x="0" y="294.3" width="24.4" height="24.65" shape-rendering="crispEdges"/><rect fill="#1e1e1e" x="24.4" y="294.3" width="12.2" height="24.65" shape-rendering="crispEdges"/><rect fill="#1e1e1e" x="36.6" y="294.3" width="24.4" height="24.65" shape-rendering="crispEdges"/><rect fill="#1e1e1e" x="61" y="294.3" width="597.8" height="24.65" shape-rendering="crispEdges"/><rect fill="#1e1e1e" x="658.8" y="294.3" width="915" height="24.65" shape-rendering="crispEdges"/><rect fill="#1e1e1e" x="1573.8" y="294.3" width="24.4" height="24.65" shape-rendering="crispEdges"/><rect fill="#1e1e1e" x="1598.2" y="294.3" width="12.2" height="24.65" shape-rendering="crispEdges"/><rect fill="#003054" x="1610.4" y="294.3" width="24.4" height="24.65" shape-rendering="crispEdges"/><rect fill="#1e1e1e" x="1634.8" y="294.3" width="24.4" height="24.65" shape-rendering="crispEdges"/><rect fill="#1e1e1e" x="0" y="318.7" width="24.4" height="24.65" shape-rendering="crispEdges"/><rect fill="#1e1e1e" x="24.4" y="318.7" width="12.2" height="24.65" shape-rendering="crispEdges"/><rect fill="#1e1e1e" x="36.6" y="318.7" width="1561.6" height="24.65" shape-rendering="crispEdges"/><rect fill="#1e1e1e" x="1598.2" y="318.7" width="12.2" height="24.65" shape-rendering="crispEdges"/><rect fill="#003054" x="1610.4" y="318.7" width="24.4" height="24.65" shape-rendering="crispEdges"/><rect fill="#1e1e1e" x="1634.8" y="318.7" width="24.4" height="24.65" shape-rendering="crispEdges"/><rect fill="#1e1e1e" x="0" y="343.1" width="24.4" height="24.65" shape-rendering="crispEdges"/><rect fill="#1e1e1e" x="24.4" y="343.1" width="12.2" height="24.65" shape-rendering="crispEdges"/><rect fill="#1e1e1e" x="36.6" y="343.1" width="1561.6" height="24.65" shape-rendering="crispEdges"/><rect fill="#1e1e1e" x="1598.2" y="343.1" width="12.2" height="24.65" shape-rendering="crispEdges"/><rect fill="#003054" x="1610.4" y="343.1" width="24.4" height="24.65" shape-rendering="crispEdges"/><rect fill="#1e1e1e" x="1634.8" y="343.1" width="24.4" height="24.65" shape-rendering="crispEdges"/><rect fill="#1e1e1e" x="0" y="367.5" width="24.4" height="24.65" shape-rendering="crispEdges"/><rect fill="#1e1e1e" x="24.4" y="367.5" width="1586" height="24.65" shape-rendering="crispEdges"/><rect fill="#003054" x="1610.4" y="367.5" width="24.4" height="24.65" shape-rendering="crispEdges"/><rect fill="#1e1e1e" x="1634.8" y="367.5" width="24.4" height="24.65" shape-rendering="crispEdges"/><rect fill="#1e1e1e" x="0" y="391.9" width="24.4" height="24.65" shape-rendering="crispEdges"/><rect fill="#1e1e1e" x="24.4" y="391.9" width="500.2" height="24.65" shape-rendering="crispEdges"/><rect fill="#1e1e1e" x="524.6" y="391.9" width="1085.8" height="24.65" shape-rendering="crispEdges"/><rect fill="#003054" x="1610.4" y="391.9" width="24.4" height="24.65" shape-rendering="crispEdges"/><rect fill="#1e1e1e" x="1634.8" y="391.9" width="24.4" height="24.65" shape-rendering="crispEdges"/><rect fill="#1e1e1e" x="0" y="416.3" width="24.4" height="24.65" shape-rendering="crispEdges"/><rect fill="#1e1e1e" x="24.4" y="416.3" width="12.2" height="24.65" shape-rendering="crispEdges"/><rect fill="#1e1e1e" x="36.6" y="416.3" width="1561.6" height="24.65" shape-rendering="crispEdges"/><rect fill="#1e1e1e" x="1598.2" y="416.3" width="12.2" height="24.65" shape-rendering="crispEdges"/><rect fill="#003054" x="1610.4" y="416.3" width="24.4" height="24.65" shape-rendering="crispEdges"/><rect fill="#1e1e1e" x="1634.8" y="416.3" width="24.4" height="24.65" shape-rendering="crispEdges"/><rect fill="#1e1e1e" x="0" y="440.7" width="24.4" height="24.65" shape-rendering="crispEdges"/><rect fill="#1e1e1e" x="24.4" y="440.7" width="12.2" height="24.65" shape-rendering="crispEdges"/><rect fill="#1e1e1e" x="36.6" y="440.7" width="24.4" height="24.65" shape-rendering="crispEdges"/><rect fill="#1e1e1e" x="61" y="440.7" width="158.6" height="24.65" shape-rendering="crispEdges"/><rect fill="#1e1e1e" x="219.6" y="440.7" width="1354.2" height="24.65" shape-rendering="crispEdges"/><rect fill="#1e1e1e" x="1573.8" y="440.7" width="24.4" height="24.65" shape-rendering="crispEdges"/><rect fill="#1e1e1e" x="1598.2" y="440.7" width="12.2" height="24.65" shape-rendering="crispEdges"/><rect fill="#003054" x="1610.4" y="440.7" width="24.4" height="24.65" shape-rendering="crispEdges"/><rect fill="#1e1e1e" x="1634.8" y="440.7" width="24.4" height="24.65" shape-rendering="crispEdges"/><rect fill="#1e1e1e" x="0" y="465.1" width="24.4" height="24.65" shape-rendering="crispEdges"/><rect fill="#1e1e1e" x="24.4" y="465.1" width="12.2" height="24.65" shape-rendering="crispEdges"/><rect fill="#1e1e1e" x="36.6" y="465.1" width="1561.6" height="24.65" shape-rendering="crispEdges"/><rect fill="#1e1e1e" x="1598.2" y="465.1" width="12.2" height="24.65" shape-rendering="crispEdges"/><rect fill="#003054" x="1610.4" y="465.1" width="24.4" height="24.65" shape-rendering="crispEdges"/><rect fill="#1e1e1e" x="1634.8" y="465.1" width="24.4" height="24.65" shape-rendering="crispEdges"/><rect fill="#1e1e1e" x="0" y="489.5" width="24.4" height="24.65" shape-rendering="crispEdges"/><rect fill="#1e1e1e" x="24.4" y="489.5" width="1586" height="24.65" shape-rendering="crispEdges"/><rect fill="#003054" x="1610.4" y="489.5" width="24.4" height="24.65" shape-rendering="crispEdges"/><rect fill="#1e1e1e" x="1634.8" y="489.5" width="24.4" height="24.65" shape-rendering="crispEdges"/><rect fill="#1e1e1e" x="0" y="513.9" width="24.4" height="24.65" shape-rendering="crispEdges"/><rect fill="#1e1e1e" x="24.4" y="513.9" width="122" height="24.65" shape-rendering="crispEdges"/><rect fill="#1e1e1e" x="146.4" y="513.9" width="1464" height="24.65" shape-rendering="crispEdges"/><rect fill="#003054" x="1610.4" y="513.9" width="24.4" height="24.65" shape-rendering="crispEdges"/><rect fill="#1e1e1e" x="1634.8" y="513.9" width="24.4" height="24.65" shape-rendering="crispEdges"/><rect fill="#1e1e1e" x="0" y="538.3" width="24.4" height="24.65" shape-rendering="crispEdges"/><rect fill="#1e1e1e" x="24.4" y="538.3" width="12.2" height="24.65" shape-rendering="crispEdges"/><rect fill="#1e1e1e" x="36.6" y="538.3" width="1561.6" height="24.65" shape-rendering="crispEdges"/><rect fill="#1e1e1e" x="1598.2" y="538.3" width="12.2" height="24.65" shape-rendering="crispEdges"/><rect fill="#003054" x="1610.4" y="538.3" width="24.4" height="24.65" shape-rendering="crispEdges"/><rect fill="#1e1e1e" x="1634.8" y="538.3" width="24.4" height="24.65" shape-rendering="crispEdges"/><rect fill="#1e1e1e" x="0" y="562.7" width="24.4" height="24.65" shape-rendering="crispEdges"/><rect fill="#1e1e1e" x="24.4" y="562.7" width="12.2" height="24.65" shape-rendering="crispEdges"/><rect fill="#1e1e1e" x="36.6" y="562.7" width="24.4" height="24.65" shape-rendering="crispEdges"/><rect fill="#1e1e1e" x="61" y="562.7" width="158.6" height="24.65" shape-rendering="crispEdges"/><rect fill="#1e1e1e" x="219.6" y="562.7" width="1354.2" height="24.65" shape-rendering="crispEdges"/><rect fill="#1e1e1e" x="1573.8" y="562.7" width="24.4" height="24.65" shape-rendering="crispEdges"/><rect fill="#1e1e1e" x="1598.2" y="562.7" width="12.2" height="24.65" shape-rendering="crispEdges"/><rect fill="#003054" x="1610.4" y="562.7" width="24.4" height="24.65" shape-rendering="crispEdges"/><rect fill="#1e1e1e" x="1634.8" y="562.7" width="24.4" height="24.65" shape-rendering="crispEdges"/><rect fill="#1e1e1e" x="0" y="587.1" width="24.4" height="24.65" shape-rendering="crispEdges"/><rect fill="#1e1e1e" x="24.4" y="587.1" width="12.2" height="24.65" shape-rendering="crispEdges"/><rect fill="#1e1e1e" x="36.6" y="587.1" width="1561.6" height="24.65" shape-rendering="crispEdges"/><rect fill="#1e1e1e" x="1598.2" y="587.1" width="12.2" height="24.65" shape-rendering="crispEdges"/><rect fill="#000000" x="1610.4" y="587.1" width="24.4" height="24.65" shape-rendering="crispEdges"/><rect fill="#1e1e1e" x="1634.8" y="587.1" width="24.4" height="24.65" shape-rendering="crispEdges"/><rect fill="#1e1e1e" x="0" y="611.5" width="24.4" height="24.65" shape-rendering="crispEdges"/><rect fill="#1e1e1e" x="24.4" y="611.5" width="1586" height="24.65" shape-rendering="crispEdges"/><rect fill="#000000" x="1610.4" y="611.5" width="24.4" height="24.65" shape-rendering="crispEdges"/><rect fill="#1e1e1e" x="1634.8" y="611.5" width="24.4" height="24.65" shape-rendering="crispEdges"/><rect fill="#1e1e1e" x="0" y="635.9" width="24.4" height="24.65" shape-rendering="crispEdges"/><rect fill="#1e1e1e" x="24.4" y="635.9" width="329.4" height="24.65" shape-rendering="crispEdges"/><rect fill="#1e1e1e" x="353.8" y="635.9" width="219.6" height="24.65" shape-rendering="crispEdges"/><rect fill="#1e1e1e" x="573.4" y="635.9" width="12.2" height="24.65" shape-rendering="crispEdges"/><rect fill="#1e1e1e" x="585.6" y="635.9" width="219.6" height="24.65" shape-rendering="crispEdges"/><rect fill="#1e1e1e" x="805.2" y="635.9" width="12.2" height="24.65" shape-rendering="crispEdges"/><rect fill="#1e1e1e" x="817.4" y="635.9" width="219.6" height="24.65" shape-rendering="crispEdges"/><rect fill="#1e1e1e" x="1037" y="635.9" width="12.2" height="24.65" shape-rendering="crispEdges"/><rect fill="#1e1e1e" x="1049.2" y="635.9" width="219.6" height="24.65" shape-rendering="crispEdges"/><rect fill="#1e1e1e" x="1268.8" y="635.9" width="341.6" height="24.65" shape-rendering="crispEdges"/><rect fill="#000000" x="1610.4" y="635.9" width="24.4" height="24.65" shape-rendering="crispEdges"/><rect fill="#1e1e1e" x="1634.8" y="635.9" width="24.4" height="24.65" shape-rendering="crispEdges"/><rect fill="#1e1e1e" x="0" y="660.3" width="24.4" height="24.65" shape-rendering="crispEdges"/><rect fill="#1e1e1e" x="24.4" y="660.3" width="329.4" height="24.65" shape-rendering="crispEdges"/><rect fill="#1e1e1e" x="353.8" y="660.3" width="61" height="24.65" shape-rendering="crispEdges"/><rect fill="#1e1e1e" x="414.8" y="660.3" width="85.4" height="24.65" shape-rendering="crispEdges"/><rect fill="#1e1e1e" x="500.2" y="660.3" width="73.2" height="24.65" shape-rendering="crispEdges"/><rect fill="#1e1e1e" x="573.4" y="660.3" width="12.2" height="24.65" shape-rendering="crispEdges"/><rect fill="#1e1e1e" x="585.6" y="660.3" width="61" height="24.65" shape-rendering="crispEdges"/><rect fill="#1e1e1e" x="646.6" y="660.3" width="85.4" height="24.65" shape-rendering="crispEdges"/><rect fill="#1e1e1e" x="732" y="660.3" width="73.2" height="24.65" shape-rendering="crispEdges"/><rect fill="#1e1e1e" x="805.2" y="660.3" width="12.2" height="24.65" shape-rendering="crispEdges"/><rect fill="#1e1e1e" x="817.4" y="660.3" width="61" height="24.65" shape-rendering="crispEdges"/><rect fill="#1e1e1e" x="878.4" y="660.3" width="85.4" height="24.65" shape-rendering="crispEdges"/><rect fill="#1e1e1e" x="963.8" y="660.3" width="73.2" height="24.65" shape-rendering="crispEdges"/><rect fill="#1e1e1e" x="1037" y="660.3" width="12.2" height="24.65" shape-rendering="crispEdges"/><rect fill="#1e1e1e" x="1049.2" y="660.3" width="61" height="24.65" shape-rendering="crispEdges"/><rect fill="#1e1e1e" x="1110.2" y="660.3" width="85.4" height="24.65" shape-rendering="crispEdges"/><rect fill="#1e1e1e" x="1195.6" y="660.3" width="73.2" height="24.65" shape-rendering="crispEdges"/><rect fill="#1e1e1e" x="1268.8" y="660.3" width="341.6" height="24.65" shape-rendering="crispEdges"/><rect fill="#000000" x="1610.4" y="660.3" width="24.4" height="24.65" shape-rendering="crispEdges"/><rect fill="#1e1e1e" x="1634.8" y="660.3" width="24.4" height="24.65" shape-rendering="crispEdges"/><rect fill="#1e1e1e" x="0" y="684.7" width="24.4" height="24.65" shape-rendering="crispEdges"/><rect fill="#1e1e1e" x="24.4" y="684.7" width="329.4" height="24.65" shape-rendering="crispEdges"/><rect fill="#1e1e1e" x="353.8" y="684.7" width="219.6" height="24.65" shape-rendering="crispEdges"/><rect fill="#1e1e1e" x="573.4" y="684.7" width="12.2" height="24.65" shape-rendering="crispEdges"/><rect fill="#1e1e1e" x="585.6" y="684.7" width="219.6" height="24.65" shape-rendering="crispEdges"/><rect fill="#1e1e1e" x="805.2" y="684.7" width="12.2" height="24.65" shape-rendering="crispEdges"/><rect fill="#1e1e1e" x="817.4" y="684.7" width="219.6" height="24.65" shape-rendering="crispEdges"/><rect fill="#1e1e1e" x="1037" y="684.7" width="12.2" height="24.65" shape-rendering="crispEdges"/><rect fill="#1e1e1e" x="1049.2" y="684.7" width="219.6" height="24.65" shape-rendering="crispEdges"/><rect fill="#1e1e1e" x="1268.8" y="684.7" width="341.6" height="24.65" shape-rendering="crispEdges"/><rect fill="#000000" x="1610.4" y="684.7" width="24.4" height="24.65" shape-rendering="crispEdges"/><rect fill="#1e1e1e" x="1634.8" y="684.7" width="24.4" height="24.65" shape-rendering="crispEdges"/><rect fill="#1e1e1e" x="0" y="709.1" width="24.4" height="24.65" shape-rendering="crispEdges"/><rect fill="#1e1e1e" x="24.4" y="709.1" width="1586" height="24.65" shape-rendering="crispEdges"/><rect fill="#000000" x="1610.4" y="709.1" width="24.4" height="24.65" shape-rendering="crispEdges"/><rect fill="#1e1e1e" x="1634.8" y="709.1" width="24.4" height="24.65" shape-rendering="crispEdges"/><rect fill="#1e1e1e" x="0" y="733.5" width="1659.2" height="24.65" shape-rendering="crispEdges"/><rect fill="#242f38" x="0" y="757.9" width="36.6" height="24.65" shape-rendering="crispEdges"/><rect fill="#242f38" x="36.6" y="757.9" width="97.6" height="24.65" shape-rendering="crispEdges"/><rect fill="#242f38" x="134.2" y="757.9" width="36.6" height="24.65" shape-rendering="crispEdges"/><rect fill="#242f38" x="170.8" y="757.9" width="146.4" height="24.65" shape-rendering="crispEdges"/><rect fill="#242f38" x="317.2" y="757.9" width="1195.6" height="24.65" shape-rendering="crispEdges"/><rect fill="#242f38" x="1512.8" y="757.9" width="12.2" height="24.65" shape-rendering="crispEdges"/><rect fill="#242f38" x="1525" y="757.9" width="24.4" height="24.65" shape-rendering="crispEdges"/><rect fill="#242f38" x="1549.4" y="757.9" width="97.6" height="24.65" shape-rendering="crispEdges"/><rect fill="#242f38" x="1647" y="757.9" width="12.2" height="24.65" shape-rendering="crispEdges"/>
    <g class="terminal-94531205-matrix">
    <text class="terminal-94531205-r2" x="12.2" y="20" textLength="12.2" clip-path="url(#terminal-94531205-line-0)">⭘</text><text class="terminal-94531205-r2" x="780.8" y="20" textLength="73.2" clip-path="url(#terminal-94531205-line-0)">SetApp</text><text class="terminal-94531205-r3" x="1549.4" y="20" textLength="97.6" clip-path="url(#terminal-94531205-line-0)">14:26:12</text><text class="terminal-94531205-r1" x="1659.2" y="20" textLength="12.2" clip-path="url(#terminal-94531205-line-0)">
</text><text class="terminal-94531205-r4" x="12.2" y="44.4" textLength="146.4" clip-path="url(#terminal-94531205-line-1)">⊕&#160;Opérations</text><text class="terminal-94531205-r5" x="183" y="44.4" textLength="183" clip-path="url(#terminal-94531205-line-1)">∈&#160;Compréhension</text><text class="terminal-94531205-r5" x="390.4" y="44.4" textLength="207.4" clip-path="url(#terminal-94531205-line-1)">f(x)&#160;Applications</text><text class="terminal-94531205-r5" x="622.2" y="44.4" textLength="183" clip-path="url(#terminal-94531205-line-1)">💾&#160;Mes&#160;Ensembles</text><text class="terminal-94531205-r5" x="841.8" y="44.4" textLength="146.4" clip-path="url(#terminal-94531205-line-1)">📜&#160;Historique</text><text class="terminal-94531205-r1" x="1659.2" y="44.4" textLength="12.2" clip-path="url(#terminal-94531205-line-1)">
</text><text class="terminal-94531205-r6" x="0" y="68.8" textLength="12.2" clip-path="url(#terminal-94531205-line-2)">╸</text><text class="terminal-94531205-r7" x="12.2" y="68.8" textLength="146.4" clip-path="url(#terminal-94531205-line-2)">━━━━━━━━━━━━</text><text class="terminal-94531205-r6" x="158.6" y="68.8" textLength="12.2" clip-path="url(#terminal-94531205-line-2)">╺</text><text class="terminal-94531205-r6" x="170.8" y="68.8" textLength="1488.4" clip-path="url(#terminal-94531205-line-2)">━━━━━━━━━━━━━━━━━━━━━━━━━━━━━━━━━━━━━━━━━━━━━━━━━━━━━━━━━━━━━━━━━━━━━━━━━━━━━━━━━━━━━━━━━━━━━━━━━━━━━━━━━━━━━━━━━━━━━━━━━━</text><text class="terminal-94531205-r1" x="1659.2" y="68.8" textLength="12.2" clip-path="url(#terminal-94531205-line-2)">
</text><text class="terminal-94531205-r1" x="1659.2" y="93.2" textLength="12.2" clip-path="url(#terminal-94531205-line-3)">
</text><text class="terminal-94531205-r8" x="24.4" y="117.6" textLength="12.2" clip-path="url(#terminal-94531205-line-4)">┏</text><text class="terminal-94531205-r8" x="36.6" y="117.6" textLength="1561.6" clip-path="url(#terminal-94531205-line-4)">╍╍╍╍╍╍╍╍╍╍╍╍╍╍╍╍╍╍╍╍╍╍╍╍╍╍╍╍╍╍╍╍╍╍╍╍╍╍╍╍╍╍╍╍╍╍╍╍╍╍╍╍╍╍╍╍╍╍╍╍╍╍╍╍╍╍╍╍╍╍╍╍╍╍╍╍╍╍╍╍╍╍╍╍╍╍╍╍╍╍╍╍╍╍╍╍╍╍╍╍╍╍╍╍╍╍╍╍╍╍╍╍╍╍╍╍╍╍╍╍╍╍╍╍╍╍╍╍</text><text class="terminal-94531205-r8" x="1598.2" y="117.6" textLength="12.2" clip-path="url(#terminal-94531205-line-4)">┓</text><text class="terminal-94531205-r1" x="1659.2" y="117.6" textLength="12.2" clip-path="url(#terminal-94531205-line-4)">
</text><text class="terminal-94531205-r8" x="24.4" y="142" textLength="12.2" clip-path="url(#terminal-94531205-line-5)">╏</text><text class="terminal-94531205-r8" x="1598.2" y="142" textLength="12.2" clip-path="url(#terminal-94531205-line-5)">╏</text><text class="terminal-94531205-r1" x="1659.2" y="142" textLength="12.2" clip-path="url(#terminal-94531205-line-5)">
</text><text class="terminal-94531205-r8" x="24.4" y="166.4" textLength="12.2" clip-path="url(#terminal-94531205-line-6)">╏</text><text class="terminal-94531205-r10" x="61" y="166.4" textLength="353.8" clip-path="url(#terminal-94531205-line-6)">Rappel&#160;&#160;—&#160;&#160;Opérations&#160;de&#160;base</text><text class="terminal-94531205-r8" x="1598.2" y="166.4" textLength="12.2" clip-path="url(#terminal-94531205-line-6)">╏</text><text class="terminal-94531205-r1" x="1659.2" y="166.4" textLength="12.2" clip-path="url(#terminal-94531205-line-6)">
</text><text class="terminal-94531205-r8" x="24.4" y="190.8" textLength="12.2" clip-path="url(#terminal-94531205-line-7)">╏</text><text class="terminal-94531205-r10" x="61" y="190.8" textLength="634.4" clip-path="url(#terminal-94531205-line-7)">&#160;&#160;A&#160;∪&#160;B&#160;&#160;:&#160;union&#160;&#160;&#160;&#160;&#160;&#160;&#160;&#160;&#160;→&#160;éléments&#160;dans&#160;A&#160;OU&#160;dans&#160;B</text><text class="terminal-94531205-r8" x="1598.2" y="190.8" textLength="12.2" clip-path="url(#terminal-94531205-line-7)">╏</text><text class="terminal-94531205-r1" x="1659.2" y="190.8" textLength="12.2" clip-path="url(#terminal-94531205-line-7)">
</text><text class="terminal-94531205-r8" x="24.4" y="215.2" textLength="12.2" clip-path="url(#terminal-94531205-line-8)">╏</text><text class="terminal-94531205-r10" x="61" y="215.2" textLength="634.4" clip-path="url(#terminal-94531205-line-8)">&#160;&#160;A&#160;∩&#160;B&#160;&#160;:&#160;intersection&#160;&#160;→&#160;éléments&#160;dans&#160;A&#160;ET&#160;dans&#160;B</text><text class="terminal-94531205-r8" x="1598.2" y="215.2" textLength="12.2" clip-path="url(#terminal-94531205-line-8)">╏</text><text class="terminal-94531205-r1" x="1659.2" y="215.2" textLength="12.2" clip-path="url(#terminal-94531205-line-8)">
</text><text class="terminal-94531205-r8" x="24.4" y="239.6" textLength="12.2" clip-path="url(#terminal-94531205-line-9)">╏</text><text class="terminal-94531205-r10" x="61" y="239.6" textLength="707.6" clip-path="url(#terminal-94531205-line-9)">&#160;&#160;A&#160;\&#160;B&#160;&#160;:&#160;différence&#160;&#160;&#160;&#160;→&#160;éléments&#160;dans&#160;A&#160;mais&#160;PAS&#160;dans&#160;B</text><text class="terminal-94531205-r8" x="1598.2" y="239.6" textLength="12.2" clip-path="url(#terminal-94531205-line-9)">╏</text><text class="terminal-94531205-r1" x="1659.2" y="239.6" textLength="12.2" clip-path="url(#terminal-94531205-line-9)">
</text><text class="terminal-94531205-r8" x="24.4" y="264" textLength="12.2" clip-path="url(#terminal-94531205-line-10)">╏</text><text class="terminal-94531205-r10" x="61" y="264" textLength="488" clip-path="url(#terminal-94531205-line-10)">&#160;&#160;A&#160;△&#160;B&#160;&#160;:&#160;diff.&#160;sym.&#160;&#160;&#160;&#160;→&#160;(A\B)&#160;∪&#160;(B\A)</text><text class="terminal-94531205-r8" x="1598.2" y="264" textLength="12.2" clip-path="url(#terminal-94531205-line-10)">╏</text><text class="terminal-94531205-r1" x="1659.2" y="264" textLength="12.2" clip-path="url(#terminal-94531205-line-10)">
</text><text class="terminal-94531205-r8" x="24.4" y="288.4" textLength="12.2" clip-path="url(#terminal-94531205-line-11)">╏</text><text class="terminal-94531205-r10" x="61" y="288.4" textLength="622.2" clip-path="url(#terminal-94531205-line-11)">&#160;&#160;A&#160;×&#160;B&#160;&#160;:&#160;produit&#160;cart.&#160;→&#160;toutes&#160;les&#160;paires&#160;(a,&#160;b)</text><text class="terminal-94531205-r8" x="1598.2" y="288.4" textLength="12.2" clip-path="url(#terminal-94531205-line-11)">╏</text><text class="terminal-94531205-r1" x="1659.2" y="288.4" textLength="12.2" clip-path="url(#terminal-94531205-line-11)">
</text><text class="terminal-94531205-r8" x="24.4" y="312.8" textLength="12.2" clip-path="url(#terminal-94531205-line-12)">╏</text><text class="terminal-94531205-r10" x="61" y="312.8" textLength="597.8" clip-path="url(#terminal-94531205-line-12)">&#160;&#160;|A|&#160;&#160;&#160;&#160;:&#160;cardinalité&#160;&#160;&#160;→&#160;nombre&#160;d&#x27;éléments&#160;de&#160;A</text><text class="terminal-94531205-r8" x="1598.2" y="312.8" textLength="12.2" clip-path="url(#terminal-94531205-line-12)">╏</text><text class="terminal-94531205-r1" x="1659.2" y="312.8" textLength="12.2" clip-path="url(#terminal-94531205-line-12)">
</text><text class="terminal-94531205-r8" x="24.4" y="337.2" textLength="12.2" clip-path="url(#terminal-94531205-line-13)">╏</text><text class="terminal-94531205-r8" x="1598.2" y="337.2" textLength="12.2" clip-path="url(#terminal-94531205-line-13)">╏</text><text class="terminal-94531205-r1" x="1659.2" y="337.2" textLength="12.2" clip-path="url(#terminal-94531205-line-13)">
</text><text class="terminal-94531205-r8" x="24.4" y="361.6" textLength="12.2" clip-path="url(#terminal-94531205-line-14)">┗</text><text class="terminal-94531205-r8" x="36.6" y="361.6" textLength="1561.6" clip-path="url(#terminal-94531205-line-14)">╍╍╍╍╍╍╍╍╍╍╍╍╍╍╍╍╍╍╍╍╍╍╍╍╍╍╍╍╍╍╍╍╍╍╍╍╍╍╍╍╍╍╍╍╍╍╍╍╍╍╍╍╍╍╍╍╍╍╍╍╍╍╍╍╍╍╍╍╍╍╍╍╍╍╍╍╍╍╍╍╍╍╍╍╍╍╍╍╍╍╍╍╍╍╍╍╍╍╍╍╍╍╍╍╍╍╍╍╍╍╍╍╍╍╍╍╍╍╍╍╍╍╍╍╍╍╍╍</text><text class="terminal-94531205-r8" x="1598.2" y="361.6" textLength="12.2" clip-path="url(#terminal-94531205-line-14)">┛</text><text class="terminal-94531205-r1" x="1659.2" y="361.6" textLength="12.2" clip-path="url(#terminal-94531205-line-14)">
</text><text class="terminal-94531205-r1" x="1659.2" y="386" textLength="12.2" clip-path="url(#terminal-94531205-line-15)">
</text><text class="terminal-94531205-r11" x="24.4" y="410.4" textLength="500.2" clip-path="url(#terminal-94531205-line-16)">Ensemble&#160;A&#160;&#160;(entiers&#160;séparés&#160;par&#160;espaces)</text><text class="terminal-94531205-r1" x="1659.2" y="410.4" textLength="12.2" clip-path="url(#terminal-94531205-line-16)">
</text><text class="terminal-94531205-r12" x="24.4" y="434.8" textLength="12.2" clip-path="url(#terminal-94531205-line-17)">┌</text><text class="terminal-94531205-r12" x="36.6" y="434.8" textLength="1561.6" clip-path="url(#terminal-94531205-line-17)">────────────────────────────────────────────────────────────────────────────────────────────────────────────────────────────────</text><text class="terminal-94531205-r12" x="1598.2" y="434.8" textLength="12.2" clip-path="url(#terminal-94531205-line-17)">┐</text><text class="terminal-94531205-r1" x="1659.2" y="434.8" textLength="12.2" clip-path="url(#terminal-94531205-line-17)">
</text><text class="terminal-94531205-r12" x="24.4" y="459.2" textLength="12.2" clip-path="url(#terminal-94531205-line-18)">│</text><text class="terminal-94531205-r13" x="61" y="459.2" textLength="158.6" clip-path="url(#terminal-94531205-line-18)">ex:&#160;1&#160;2&#160;3&#160;4&#160;5</text><text class="terminal-94531205-r12" x="1598.2" y="459.2" textLength="12.2" clip-path="url(#terminal-94531205-line-18)">│</text><text class="terminal-94531205-r1" x="1659.2" y="459.2" textLength="12.2" clip-path="url(#terminal-94531205-line-18)">
</text><text class="terminal-94531205-r12" x="24.4" y="483.6" textLength="12.2" clip-path="url(#terminal-94531205-line-19)">└</text><text class="terminal-94531205-r12" x="36.6" y="483.6" textLength="1561.6" clip-path="url(#terminal-94531205-line-19)">────────────────────────────────────────────────────────────────────────────────────────────────────────────────────────────────</text><text class="terminal-94531205-r12" x="1598.2" y="483.6" textLength="12.2" clip-path="url(#terminal-94531205-line-19)">┘</text><text class="terminal-94531205-r1" x="1659.2" y="483.6" textLength="12.2" clip-path="url(#terminal-94531205-line-19)">
</text><text class="terminal-94531205-r1" x="1659.2" y="508" textLength="12.2" clip-path="url(#terminal-94531205-line-20)">
</text><text class="terminal-94531205-r11" x="24.4" y="532.4" textLength="122" clip-path="url(#terminal-94531205-line-21)">Ensemble&#160;B</text><text class="terminal-94531205-r1" x="1659.2" y="532.4" textLength="12.2" clip-path="url(#terminal-94531205-line-21)">
</text><text class="terminal-94531205-r12" x="24.4" y="556.8" textLength="12.2" clip-path="url(#terminal-94531205-line-22)">┌</text><text class="terminal-94531205-r12" x="36.6" y="556.8" textLength="1561.6" clip-path="url(#terminal-94531205-line-22)">────────────────────────────────────────────────────────────────────────────────────────────────────────────────────────────────</text><text class="terminal-94531205-r12" x="1598.2" y="556.8" textLength="12.2" clip-path="url(#terminal-94531205-line-22)">┐</text><text class="terminal-94531205-r1" x="1659.2" y="556.8" textLength="12.2" clip-path="url(#terminal-94531205-line-22)">
</text><text class="terminal-94531205-r12" x="24.4" y="581.2" textLength="12.2" clip-path="url(#terminal-94531205-line-23)">│</text><text class="terminal-94531205-r13" x="61" y="581.2" textLength="158.6" clip-path="url(#terminal-94531205-line-23)">ex:&#160;3&#160;4&#160;5&#160;6&#160;7</text><text class="terminal-94531205-r12" x="1598.2" y="581.2" textLength="12.2" clip-path="url(#terminal-94531205-line-23)">│</text><text class="terminal-94531205-r14" x="1610.4" y="581.2" textLength="24.4" clip-path="url(#terminal-94531205-line-23)">▅▅</text><text class="terminal-94531205-r1" x="1659.2" y="581.2" textLength="12.2" clip-path="url(#terminal-94531205-line-23)">
</text><text class="terminal-94531205-r12" x="24.4" y="605.6" textLength="12.2" clip-path="url(#terminal-94531205-line-24)">└</text><text class="terminal-94531205-r12" x="36.6" y="605.6" textLength="1561.6" clip-path="url(#terminal-94531205-line-24)">────────────────────────────────────────────────────────────────────────────────────────────────────────────────────────────────</text><text class="terminal-94531205-r12" x="1598.2" y="605.6" textLength="12.2" clip-path="url(#terminal-94531205-line-24)">┘</text><text class="terminal-94531205-r1" x="1659.2" y="605.6" textLength="12.2" clip-path="url(#terminal-94531205-line-24)">
</text><text class="terminal-94531205-r1" x="1659.2" y="630" textLength="12.2" clip-path="url(#terminal-94531205-line-25)">
</text><text class="terminal-94531205-r15" x="353.8" y="654.4" textLength="219.6" clip-path="url(#terminal-94531205-line-26)">▔▔▔▔▔▔▔▔▔▔▔▔▔▔▔▔▔▔</text><text class="terminal-94531205-r15" x="585.6" y="654.4" textLength="219.6" clip-path="url(#terminal-94531205-line-26)">▔▔▔▔▔▔▔▔▔▔▔▔▔▔▔▔▔▔</text><text class="terminal-94531205-r15" x="817.4" y="654.4" textLength="219.6" clip-path="url(#terminal-94531205-line-26)">▔▔▔▔▔▔▔▔▔▔▔▔▔▔▔▔▔▔</text><text class="terminal-94531205-r15" x="1049.2" y="654.4" textLength="219.6" clip-path="url(#terminal-94531205-line-26)">▔▔▔▔▔▔▔▔▔▔▔▔▔▔▔▔▔▔</text><text class="terminal-94531205-r1" x="1659.2" y="654.4" textLength="12.2" clip-path="url(#terminal-94531205-line-26)">
</text><text class="terminal-94531205-r16" x="414.8" y="678.8" textLength="85.4" clip-path="url(#terminal-94531205-line-27)">&#160;A&#160;∪&#160;B&#160;</text><text class="terminal-94531205-r16" x="646.6" y="678.8" textLength="85.4" clip-path="url(#terminal-94531205-line-27)">&#160;A&#160;∩&#160;B&#160;</text><text class="terminal-94531205-r16" x="878.4" y="678.8" textLength="85.4" clip-path="url(#terminal-94531205-line-27)">&#160;A&#160;\&#160;B&#160;</text><text class="terminal-94531205-r16" x="1110.2" y="678.8" textLength="85.4" clip-path="url(#terminal-94531205-line-27)">&#160;A&#160;△&#160;B&#160;</text><text class="terminal-94531205-r1" x="1659.2" y="678.8" textLength="12.2" clip-path="url(#terminal-94531205-line-27)">
</text><text class="terminal-94531205-r17" x="353.8" y="703.2" textLength="219.6" clip-path="url(#terminal-94531205-line-28)">▁▁▁▁▁▁▁▁▁▁▁▁▁▁▁▁▁▁</text><text class="terminal-94531205-r17" x="585.6" y="703.2" textLength="219.6" clip-path="url(#terminal-94531205-line-28)">▁▁▁▁▁▁▁▁▁▁▁▁▁▁▁▁▁▁</text><text class="terminal-94531205-r17" x="817.4" y="703.2" textLength="219.6" clip-path="url(#terminal-94531205-line-28)">▁▁▁▁▁▁▁▁▁▁▁▁▁▁▁▁▁▁</text><text class="terminal-94531205-r17" x="1049.2" y="703.2" textLength="219.6" clip-path="url(#terminal-94531205-line-28)">▁▁▁▁▁▁▁▁▁▁▁▁▁▁▁▁▁▁</text><text class="terminal-94531205-r1" x="1659.2" y="703.2" textLength="12.2" clip-path="url(#terminal-94531205-line-28)">
</text><text class="terminal-94531205-r1" x="1659.2" y="727.6" textLength="12.2" clip-path="url(#terminal-94531205-line-29)">
</text><text class="terminal-94531205-r1" x="1659.2" y="752" textLength="12.2" clip-path="url(#terminal-94531205-line-30)">
</text><text class="terminal-94531205-r18" x="0" y="776.4" textLength="36.6" clip-path="url(#terminal-94531205-line-31)">&#160;q&#160;</text><text class="terminal-94531205-r2" x="36.6" y="776.4" textLength="97.6" clip-path="url(#terminal-94531205-line-31)">Quitter&#160;</text><text class="terminal-94531205-r18" x="134.2" y="776.4" textLength="36.6" clip-path="url(#terminal-94531205-line-31)">&#160;s&#160;</text><text class="terminal-94531205-r2" x="170.8" y="776.4" textLength="146.4" clip-path="url(#terminal-94531205-line-31)">Sauvegarder&#160;</text><text class="terminal-94531205-r19" x="1512.8" y="776.4" textLength="12.2" clip-path="url(#terminal-94531205-line-31)">▏</text><text class="terminal-94531205-r18" x="1525" y="776.4" textLength="24.4" clip-path="url(#terminal-94531205-line-31)">^p</text><text class="terminal-94531205-r2" x="1549.4" y="776.4" textLength="97.6" clip-path="url(#terminal-94531205-line-31)">&#160;palette</text>
    </g>
    </g>
</svg>
